<svg data-v-423bf9ae="" xmlns="http://www.w3.org/2000/svg" viewBox="0 0 497 90" class="iconLeft"><!----><!----><!----><g data-v-423bf9ae="" id="2cb5736f-37d0-46cb-ad92-acc1fbb633f6" fill="black" transform="matrix(4.72318553409118,0,0,4.72318553409118,107.40223452481536,-4.317830508808157)"><path d="M3.85 14Q3.72 14 3.68 13.89L3.68 13.89L0.56 4.35L0.55 4.30Q0.55 4.20 0.67 4.20L0.67 4.20L0.94 4.20Q1.06 4.20 1.11 4.31L1.11 4.31L3.98 13.12Q3.99 13.15 4.02 13.15Q4.05 13.15 4.06 13.12L4.06 13.12L6.93 4.31Q6.97 4.20 7.10 4.20L7.10 4.20L7.35 4.20Q7.50 4.20 7.46 4.35L7.46 4.35L4.33 13.89Q4.28 14 4.16 14L4.16 14L3.85 14ZM11.16 14.11Q10.18 14.11 9.51 13.60Q8.83 13.09 8.61 12.24L8.61 12.24Q8.53 11.91 8.50 11.52Q8.47 11.12 8.47 10.47L8.47 10.47Q8.47 9.81 8.49 9.42Q8.51 9.03 8.60 8.72L8.60 8.72Q8.82 7.88 9.51 7.37Q10.19 6.86 11.16 6.86L11.16 6.86Q12.14 6.86 12.83 7.37Q13.52 7.88 13.72 8.72L13.72 8.72Q13.79 9.03 13.81 9.41Q13.83 9.79 13.83 10.47L13.83 10.47Q13.83 11.19 13.81 11.56Q13.79 11.93 13.72 12.24L13.72 12.24Q13.51 13.09 12.82 13.60Q12.14 14.11 11.16 14.11L11.16 14.11ZM11.16 13.62Q11.97 13.62 12.52 13.18Q13.06 12.74 13.22 12.03L13.22 12.03Q13.26 11.82 13.27 11.39Q13.29 10.96 13.29 10.49L13.29 10.49Q13.29 9.97 13.27 9.55Q13.26 9.14 13.22 8.95L13.22 8.95Q13.08 8.23 12.52 7.79Q11.96 7.35 11.14 7.35L11.14 7.35Q10.35 7.35 9.80 7.79Q9.25 8.23 9.10 8.95L9.10 8.95Q9.02 9.31 9.02 10.49L9.02 10.49Q9.02 11.68 9.10 12.03L9.10 12.03Q9.25 12.75 9.80 13.19Q10.35 13.62 11.16 13.62L11.16 13.62ZM18.70 6.92Q19.19 6.92 19.53 7.07L19.53 7.07Q19.64 7.11 19.60 7.25L19.60 7.25L19.50 7.53Q19.46 7.67 19.33 7.60L19.33 7.60Q19.03 7.49 18.63 7.50L18.63 7.50Q18.09 7.50 17.65 7.80Q17.22 8.09 16.98 8.58Q16.73 9.07 16.73 9.66L16.73 9.66L16.73 13.86Q16.73 14 16.59 14L16.59 14L16.32 14Q16.18 14 16.18 13.86L16.18 13.86L16.18 7.11Q16.18 6.97 16.32 6.97L16.32 6.97L16.59 6.97Q16.73 6.97 16.73 7.11L16.73 7.11L16.73 8.16Q16.73 8.20 16.75 8.21Q16.77 8.22 16.79 8.18L16.79 8.18Q17.08 7.59 17.57 7.25Q18.06 6.92 18.70 6.92L18.70 6.92ZM24.19 7.31Q24.19 7.45 24.05 7.45L24.05 7.45L22.36 7.45Q22.30 7.45 22.30 7.50L22.30 7.50L22.30 12.15Q22.30 12.91 22.65 13.20Q23.00 13.50 23.74 13.50L23.74 13.50L24.05 13.50Q24.19 13.50 24.19 13.64L24.19 13.64L24.19 13.85Q24.19 13.99 24.05 14L24.05 14L23.70 14Q22.76 14 22.27 13.62Q21.77 13.24 21.77 12.25L21.77 12.25L21.77 7.50Q21.77 7.45 21.71 7.45L21.71 7.45L20.86 7.45Q20.72 7.45 20.72 7.31L20.72 7.31L20.72 7.11Q20.72 6.97 20.86 6.97L20.86 6.97L21.71 6.97Q21.77 6.97 21.77 6.92L21.77 6.92L21.77 5.33Q21.77 5.19 21.91 5.19L21.91 5.19L22.16 5.19Q22.30 5.19 22.30 5.33L22.30 5.33L22.30 6.92Q22.30 6.97 22.36 6.97L22.36 6.97L24.05 6.97Q24.19 6.97 24.19 7.11L24.19 7.11L24.19 7.31ZM28.62 13.62Q29.34 13.62 29.86 13.29Q30.38 12.95 30.63 12.38L30.63 12.38Q30.67 12.25 30.80 12.29L30.80 12.29L30.98 12.35Q31.12 12.39 31.08 12.53L31.08 12.53Q30.80 13.24 30.14 13.68Q29.48 14.11 28.59 14.11L28.59 14.11Q27.64 14.11 26.98 13.62Q26.32 13.13 26.07 12.31L26.07 12.31Q25.91 11.72 25.91 10.47L25.91 10.47Q25.91 9.83 25.94 9.44Q25.96 9.06 26.03 8.75L26.03 8.75Q26.24 7.90 26.91 7.38Q27.59 6.86 28.57 6.86L28.57 6.86Q29.61 6.86 30.30 7.41Q30.98 7.97 31.16 8.89L31.16 8.89Q31.22 9.16 31.23 9.52Q31.25 9.88 31.25 10.47L31.25 10.47Q31.25 10.63 31.11 10.63L31.11 10.63L26.52 10.63Q26.46 10.63 26.46 10.68L26.46 10.68Q26.46 11.13 26.47 11.49Q26.49 11.86 26.53 12.03L26.53 12.03Q26.67 12.75 27.22 13.19Q27.78 13.62 28.62 13.62L28.62 13.62ZM28.57 7.35Q27.75 7.35 27.21 7.78Q26.67 8.22 26.53 8.92L26.53 8.92Q26.46 9.37 26.46 10.12L26.46 10.12Q26.46 10.18 26.52 10.18L26.52 10.18L30.65 10.18Q30.70 10.18 30.70 10.12L30.70 10.12Q30.70 9.23 30.63 8.95L30.63 8.95Q30.48 8.23 29.93 7.79Q29.39 7.35 28.57 7.35L28.57 7.35ZM32.68 14Q32.59 14 32.56 13.94Q32.54 13.89 32.59 13.83L32.59 13.83L34.94 10.53Q34.97 10.49 34.94 10.44L34.94 10.44L32.59 7.14Q32.56 7.11 32.56 7.06L32.56 7.06Q32.56 7.03 32.59 7Q32.62 6.97 32.68 6.97L32.68 6.97L32.96 6.97Q33.07 6.97 33.12 7.06L33.12 7.06L35.22 10.01Q35.24 10.02 35.27 10.02Q35.29 10.02 35.31 10.01L35.31 10.01L37.37 7.06Q37.42 6.97 37.53 6.97L37.53 6.97L37.84 6.97Q37.93 6.97 37.95 7.03Q37.98 7.08 37.93 7.14L37.93 7.14L35.59 10.44Q35.57 10.49 35.59 10.53L35.59 10.53L37.93 13.83Q37.95 13.86 37.95 13.92L37.95 13.92Q37.95 13.94 37.93 13.97Q37.90 14 37.84 14L37.84 14L37.55 14Q37.44 14 37.38 13.92L37.38 13.92L35.32 10.96Q35.31 10.93 35.28 10.93Q35.25 10.93 35.24 10.96L35.24 10.96L33.15 13.92Q33.10 14 32.98 14L32.98 14L32.68 14ZM42.73 14.11Q41.79 14.11 41.08 13.75Q40.38 13.38 39.98 12.72Q39.59 12.05 39.59 11.20L39.59 11.20L39.59 7Q39.59 6.13 39.98 5.47Q40.38 4.82 41.08 4.45Q41.79 4.09 42.73 4.09L42.73 4.09Q43.65 4.09 44.35 4.45Q45.05 4.82 45.44 5.47Q45.84 6.12 45.84 6.96L45.84 6.96L45.84 7.17Q45.84 7.31 45.70 7.31L45.70 7.31L45.43 7.31Q45.29 7.31 45.29 7.17L45.29 7.17L45.29 6.96Q45.29 5.89 44.58 5.24Q43.88 4.58 42.73 4.58L42.73 4.58Q41.57 4.58 40.85 5.24Q40.14 5.91 40.14 6.99L40.14 6.99L40.14 11.21Q40.14 12.29 40.85 12.96Q41.57 13.62 42.74 13.62L42.74 13.62Q43.89 13.62 44.59 12.97Q45.29 12.32 45.29 11.26L45.29 11.26L45.29 9.73Q45.29 9.67 45.23 9.67L45.23 9.67L42.95 9.67Q42.81 9.67 42.81 9.53L42.81 9.53L42.81 9.32Q42.81 9.18 42.95 9.18L42.95 9.18L45.70 9.18Q45.84 9.18 45.84 9.32L45.84 9.32L45.84 11.16Q45.84 12.52 44.98 13.31Q44.13 14.11 42.73 14.11L42.73 14.11ZM50.30 6.86Q51.51 6.86 52.11 7.48Q52.72 8.11 52.72 9.20L52.72 9.20L52.72 13.86Q52.72 14 52.58 14L52.58 14L52.32 14Q52.18 14 52.18 13.86L52.18 13.86L52.18 13.19Q52.18 13.16 52.16 13.15Q52.14 13.13 52.11 13.16L52.11 13.16Q51.74 13.62 51.13 13.87Q50.53 14.11 49.81 14.11L49.81 14.11Q48.86 14.11 48.20 13.64Q47.53 13.16 47.53 12.17L47.53 12.17Q47.53 11.14 48.30 10.56Q49.07 9.97 50.41 9.97L50.41 9.97L52.12 9.97Q52.18 9.97 52.18 9.91L52.18 9.91L52.18 9.18Q52.18 8.34 51.72 7.85Q51.25 7.35 50.27 7.35L50.27 7.35Q49.52 7.35 49.03 7.67Q48.54 7.98 48.43 8.51L48.43 8.51Q48.38 8.65 48.26 8.64L48.26 8.64L47.96 8.60Q47.89 8.58 47.86 8.55Q47.82 8.51 47.84 8.46L47.84 8.46Q47.99 7.73 48.65 7.29Q49.31 6.86 50.30 6.86L50.30 6.86ZM49.88 13.62Q50.82 13.62 51.50 13.17Q52.18 12.73 52.18 11.91L52.18 11.91L52.18 10.49Q52.18 10.43 52.12 10.43L52.12 10.43L50.43 10.43Q49.38 10.43 48.73 10.88Q48.08 11.34 48.08 12.14L48.08 12.14Q48.08 12.87 48.58 13.24Q49.08 13.62 49.88 13.62L49.88 13.62ZM61.95 6.87Q62.97 6.87 63.59 7.48Q64.20 8.09 64.20 9.16L64.20 9.16L64.20 13.86Q64.20 14 64.06 14L64.06 14L63.80 14Q63.66 14 63.66 13.86L63.66 13.86L63.66 9.25Q63.66 8.39 63.15 7.88Q62.65 7.36 61.82 7.36L61.82 7.36Q60.94 7.36 60.42 7.86Q59.91 8.36 59.91 9.23L59.91 9.23L59.91 13.86Q59.91 14 59.77 14L59.77 14L59.50 14Q59.36 14 59.36 13.86L59.36 13.86L59.36 9.25Q59.36 8.39 58.86 7.88Q58.35 7.36 57.54 7.36L57.54 7.36Q56.66 7.36 56.14 7.86Q55.62 8.36 55.62 9.23L55.62 9.23L55.62 13.86Q55.62 14 55.48 14L55.48 14L55.22 14Q55.08 14 55.08 13.86L55.08 13.86L55.08 7.11Q55.08 6.97 55.22 6.97L55.22 6.97L55.48 6.97Q55.62 6.97 55.62 7.11L55.62 7.11L55.62 7.81Q55.62 7.85 55.64 7.85Q55.66 7.85 55.69 7.83L55.69 7.83Q55.99 7.36 56.50 7.12Q57.01 6.87 57.67 6.87L57.67 6.87Q58.39 6.87 58.93 7.20Q59.47 7.53 59.72 8.13L59.72 8.13Q59.74 8.16 59.75 8.16Q59.77 8.16 59.78 8.13L59.78 8.13Q60.05 7.52 60.61 7.20Q61.18 6.87 61.95 6.87L61.95 6.87ZM67.06 5.43Q66.82 5.43 66.66 5.28Q66.50 5.12 66.50 4.90L66.50 4.90Q66.50 4.69 66.66 4.54Q66.82 4.40 67.06 4.40L67.06 4.40Q67.30 4.40 67.45 4.54Q67.61 4.69 67.61 4.90L67.61 4.90Q67.61 5.14 67.45 5.29Q67.30 5.43 67.06 5.43L67.06 5.43ZM66.92 14Q66.78 14 66.78 13.86L66.78 13.86L66.78 7.11Q66.78 6.97 66.92 6.97L66.92 6.97L67.19 6.97Q67.33 6.97 67.33 7.11L67.33 7.11L67.33 13.86Q67.33 14 67.19 14L67.19 14L66.92 14ZM72.67 6.87Q73.72 6.87 74.38 7.52Q75.04 8.18 75.04 9.24L75.04 9.24L75.04 13.86Q75.04 14 74.90 14L74.90 14L74.63 14Q74.49 14 74.49 13.86L74.49 13.86L74.49 9.34Q74.49 8.47 73.95 7.92Q73.42 7.36 72.58 7.36L72.58 7.36Q71.67 7.36 71.11 7.90Q70.56 8.44 70.56 9.31L70.56 9.31L70.56 13.86Q70.56 14 70.42 14L70.42 14L70.15 14Q70.01 14 70.01 13.86L70.01 13.86L70.01 7.11Q70.01 6.97 70.15 6.97L70.15 6.97L70.42 6.97Q70.56 6.97 70.56 7.11L70.56 7.11L70.56 7.87Q70.56 7.91 70.58 7.92Q70.60 7.92 70.62 7.90L70.62 7.90Q70.92 7.41 71.45 7.14Q71.97 6.87 72.67 6.87L72.67 6.87ZM81.89 7.11Q81.89 6.97 82.03 6.97L82.03 6.97L82.29 6.97Q82.43 6.97 82.43 7.11L82.43 7.11L82.43 13.92Q82.43 15.41 81.55 16.13Q80.67 16.84 78.97 16.79L78.97 16.79Q78.83 16.79 78.83 16.65L78.83 16.65L78.85 16.41Q78.85 16.27 78.99 16.27L78.99 16.27Q80.49 16.31 81.19 15.72Q81.89 15.13 81.89 13.90L81.89 13.90L81.89 13.06Q81.89 13.02 81.87 13.02Q81.84 13.02 81.82 13.05L81.82 13.05Q81.52 13.54 81.03 13.81Q80.53 14.08 79.84 14.08L79.84 14.08Q78.92 14.08 78.26 13.59Q77.60 13.09 77.38 12.24L77.38 12.24Q77.22 11.68 77.22 10.50L77.22 10.50Q77.22 9.32 77.38 8.69L77.38 8.69Q77.60 7.87 78.25 7.36Q78.90 6.86 79.83 6.86L79.83 6.86Q80.50 6.86 81.00 7.13Q81.51 7.41 81.82 7.88L81.82 7.88Q81.83 7.92 81.86 7.92Q81.89 7.91 81.89 7.87L81.89 7.87L81.89 7.11ZM81.83 12.03Q81.86 11.80 81.87 11.49Q81.89 11.17 81.89 10.49L81.89 10.49Q81.89 9.80 81.87 9.48Q81.86 9.17 81.83 8.93L81.83 8.93Q81.72 8.25 81.21 7.80Q80.70 7.35 79.91 7.35L79.91 7.35Q79.14 7.35 78.62 7.80Q78.09 8.25 77.90 8.93L77.90 8.93Q77.78 9.38 77.78 10.47L77.78 10.47Q77.78 11.62 77.90 12.01L77.90 12.01Q78.06 12.71 78.60 13.16Q79.14 13.61 79.91 13.61L79.91 13.61Q80.71 13.61 81.21 13.15Q81.72 12.70 81.83 12.03L81.83 12.03Z"></path></g><!----><g data-v-423bf9ae="" id="fb388b51-db36-4d5f-8993-33e98280b909" transform="matrix(2.8125,0,0,2.8125,0,0)" stroke="none" fill="black"><path d="M9.382 8.675h13.943v13.943L32 31.293V0H.707zM22.618 23.325H8.675V9.382L0 .707V32h31.293z"></path></g><!----></svg>